<mxfile host="www.draw.io" modified="2020-01-20T06:19:26.348Z" agent="Mozilla/5.0 (Windows NT 10.0; Win64; x64) AppleWebKit/537.36 (KHTML, like Gecko) Chrome/76.0.3809.100 Safari/537.36" etag="vjweE50j40e3jMUmWIH5" version="12.5.5" type="github">
  <diagram id="v5mtL_aXZna7XjhM6NMi" name="Page-1">
    <mxGraphModel dx="920" dy="494" grid="1" gridSize="10" guides="1" tooltips="1" connect="1" arrows="1" fold="1" page="1" pageScale="1" pageWidth="850" pageHeight="1100" math="0" shadow="0">
      <root>
        <mxCell id="0"/>
        <mxCell id="1" parent="0"/>
        <mxCell id="NvxRt0RvDJ9kgg9hN_37-11" value="" style="edgeStyle=orthogonalEdgeStyle;rounded=0;orthogonalLoop=1;jettySize=auto;html=1;" edge="1" parent="1" source="NvxRt0RvDJ9kgg9hN_37-1" target="NvxRt0RvDJ9kgg9hN_37-2">
          <mxGeometry relative="1" as="geometry"/>
        </mxCell>
        <mxCell id="NvxRt0RvDJ9kgg9hN_37-1" value="Start" style="ellipse;whiteSpace=wrap;html=1;" vertex="1" parent="1">
          <mxGeometry x="10" y="100" width="80" height="40" as="geometry"/>
        </mxCell>
        <mxCell id="NvxRt0RvDJ9kgg9hN_37-12" value="" style="edgeStyle=orthogonalEdgeStyle;rounded=0;orthogonalLoop=1;jettySize=auto;html=1;" edge="1" parent="1" source="NvxRt0RvDJ9kgg9hN_37-2" target="NvxRt0RvDJ9kgg9hN_37-3">
          <mxGeometry relative="1" as="geometry"/>
        </mxCell>
        <mxCell id="NvxRt0RvDJ9kgg9hN_37-2" value="Order of cash within the system" style="rounded=0;whiteSpace=wrap;html=1;" vertex="1" parent="1">
          <mxGeometry x="120" y="90" width="120" height="60" as="geometry"/>
        </mxCell>
        <mxCell id="NvxRt0RvDJ9kgg9hN_37-13" value="" style="edgeStyle=orthogonalEdgeStyle;rounded=0;orthogonalLoop=1;jettySize=auto;html=1;" edge="1" parent="1" source="NvxRt0RvDJ9kgg9hN_37-3" target="NvxRt0RvDJ9kgg9hN_37-4">
          <mxGeometry relative="1" as="geometry"/>
        </mxCell>
        <mxCell id="NvxRt0RvDJ9kgg9hN_37-3" value="Accept the order and request transport&amp;nbsp;" style="rounded=0;whiteSpace=wrap;html=1;" vertex="1" parent="1">
          <mxGeometry x="280" y="90" width="120" height="60" as="geometry"/>
        </mxCell>
        <mxCell id="NvxRt0RvDJ9kgg9hN_37-14" value="" style="edgeStyle=orthogonalEdgeStyle;rounded=0;orthogonalLoop=1;jettySize=auto;html=1;" edge="1" parent="1" source="NvxRt0RvDJ9kgg9hN_37-4" target="NvxRt0RvDJ9kgg9hN_37-5">
          <mxGeometry relative="1" as="geometry"/>
        </mxCell>
        <mxCell id="NvxRt0RvDJ9kgg9hN_37-4" value="Confirm the car details and team" style="rounded=0;whiteSpace=wrap;html=1;" vertex="1" parent="1">
          <mxGeometry x="430" y="90" width="120" height="60" as="geometry"/>
        </mxCell>
        <mxCell id="NvxRt0RvDJ9kgg9hN_37-15" value="" style="edgeStyle=orthogonalEdgeStyle;rounded=0;orthogonalLoop=1;jettySize=auto;html=1;" edge="1" parent="1" source="NvxRt0RvDJ9kgg9hN_37-5" target="NvxRt0RvDJ9kgg9hN_37-10">
          <mxGeometry relative="1" as="geometry"/>
        </mxCell>
        <mxCell id="NvxRt0RvDJ9kgg9hN_37-5" value="Transport Cash" style="rounded=0;whiteSpace=wrap;html=1;" vertex="1" parent="1">
          <mxGeometry x="580" y="90" width="120" height="60" as="geometry"/>
        </mxCell>
        <mxCell id="NvxRt0RvDJ9kgg9hN_37-18" value="" style="edgeStyle=orthogonalEdgeStyle;rounded=0;orthogonalLoop=1;jettySize=auto;html=1;entryX=0.5;entryY=0;entryDx=0;entryDy=0;" edge="1" parent="1" source="NvxRt0RvDJ9kgg9hN_37-10" target="NvxRt0RvDJ9kgg9hN_37-16">
          <mxGeometry relative="1" as="geometry">
            <mxPoint x="789.4099999999999" y="230" as="targetPoint"/>
          </mxGeometry>
        </mxCell>
        <mxCell id="NvxRt0RvDJ9kgg9hN_37-10" value="Confirm&amp;nbsp; cash&amp;nbsp;receipt" style="rounded=0;whiteSpace=wrap;html=1;" vertex="1" parent="1">
          <mxGeometry x="729.41" y="90" width="120" height="60" as="geometry"/>
        </mxCell>
        <mxCell id="NvxRt0RvDJ9kgg9hN_37-16" value="End" style="ellipse;whiteSpace=wrap;html=1;" vertex="1" parent="1">
          <mxGeometry x="749.41" y="190" width="80" height="40" as="geometry"/>
        </mxCell>
        <mxCell id="NvxRt0RvDJ9kgg9hN_37-19" value="&lt;b&gt;To Be&lt;/b&gt;" style="text;html=1;strokeColor=none;fillColor=none;align=center;verticalAlign=middle;whiteSpace=wrap;rounded=0;" vertex="1" parent="1">
          <mxGeometry x="30" y="20" width="130" height="40" as="geometry"/>
        </mxCell>
      </root>
    </mxGraphModel>
  </diagram>
</mxfile>
